<?xml version="1.0" encoding="UTF-8"?>
<svg xmlns="http://www.w3.org/2000/svg" version="1.1" viewBox="0 0 200 200">
  <defs>
    <style>
      .cls-1 {
        fill: #fff;
      }

      .cls-2 {
        fill: none;
      }
    </style>
  </defs>
  <!-- Generator: Adobe Illustrator 28.7.2, SVG Export Plug-In . SVG Version: 1.2.0 Build 154)  -->
  <g>
    <g id="Layer_1">
      <rect class="cls-2" width="200" height="200"/>
      <g>
        <path class="cls-1" d="M126.4,137.4c-.9,0-1.1-.5-1.1-1.4,0-3.4,0-6.9,0-10.3s0-6.8,0-10.2c0-.9.1-1.4,1.1-1.4v-1.2c-.8,0-1.1-.4-1.1-1.3,0-6.9,0-13.9,0-20.8,0-1,.3-1.3,1.3-1.3,6.9,0,13.9,0,20.8,0,1.1,0,1.3.3,1.3,1.1h1.2c0-.8.3-1.1,1.3-1.1,6.9,0,13.9,0,20.8,0,1,0,1.3.3,1.3,1.1h1.2c0-1,.5-1.2,1.5-1.1,1,0,2.1,0,3.1,0s1,0,.9-.7c0-.7-.5-.5-.9-.5-1.2,0-2.4,0-3.6,0-.8,0-1.1-.3-1.1-1.1,0-7.1,0-14.2,0-21.3,0-.8.3-1.1,1.1-1.1,1.1,0,2.3,0,3.4,0,.4,0,1,.2,1-.5,0-.9-.6-.7-1.1-.7-1.1,0-2.2,0-3.3,0-.9,0-1.2-.2-1.2-1.2,0-7,0-14.1,0-21.2,0-.9.4-1.2,1.2-1.1,1.1,0,2.2,0,3.3,0,.4,0,1,.2,1.1-.5,0-.9-.7-.6-1.1-.6-1,0-2,0-3,0-1.2.1-1.5-.4-1.5-1.5,0-2.9,0-5.7,0-8.6,0-.5.5-1.6-.6-1.6-1.1,0-.6,1.1-.6,1.6,0,2.9,0,5.7,0,8.6,0,1-.2,1.5-1.4,1.5-6.9,0-13.8,0-20.7,0-1.2,0-1.4-.5-1.4-1.5,0-3,0-6.1,0-9.1,0-.5.2-1.2-.6-1.2s-.6.7-.6,1.2c0,3.1,0,6.2,0,9.2,0,1-.4,1.3-1.4,1.3-6.9,0-13.9,0-20.8,0-1.1,0-1.3-.4-1.3-1.4,0-3.1,0-6.2,0-9.2,0-.5.2-1.1-.6-1.1s-.6.7-.6,1.1c0,3.1,0,6.2,0,9.2,0,1-.2,1.4-1.3,1.3-6.9,0-13.9,0-20.8,0-1.1,0-1.4-.4-1.4-1.5,0-3,0-6.1,0-9.1,0-.4.3-1.2-.5-1.2-1,0-.7.8-.7,1.3,0,2.9,0,5.8,0,8.8,0,1.4-.4,1.7-1.8,1.7-6.3,0-12.5,0-18.8,0s-1.8,0-2.1,1.2h1.8c6.4,0,12.8,0,19.3,0,1.2,0,1.7.2,1.6,1.5-.1,2.1,0,4.3,0,6.4v8.1c1.2-.1,1.2-.9,1.2-1.7,0-4.2,0-8.5,0-12.7,0-1.2.2-1.7,1.6-1.7,6.8,0,13.6,0,20.4,0,1.2,0,1.6.4,1.5,1.6,0,5.4,0,10.8,0,16.1,0,.8,0,1.6,1.2,1.8,0-6.1,0-12.1,0-18.1,0-1,.2-1.5,1.3-1.5,6.9,0,13.9,0,20.8,0,.9,0,1.3.2,1.3,1.2,0,7,0,14,0,21,0,1-.3,1.2-1.3,1.2-3.9,0-7.8,0-11.8,0s-4.6,0-6.9,0c-.3,0-.8-.2-.8.4,0,.4.2.8.8.8.4,0,.7,0,1.1,0,5.7,0,11.4,0,17.1,0,1.3,0,1.8.3,1.8,1.7,0,6.7,0,13.4,0,20,0,1.5-.5,1.8-1.9,1.8-6.6,0-13.3,0-19.9,0-1.3,0-2-.2-1.7-1.7,0,0,0-.2,0-.3,0-.5,0-.9-.7-.9-.7,0-.4.6-.5.9-.2.8.6,1.9-1.1,1.9-7.1,0-14.1,0-21.2,0-1,0-1.2-.4-1.2-1.3,0-2.3,0-4.6,0-6.9,0-.4.5-1.3-.5-1.3-.9,0-.7.7-.7,1.3,0,2.3,0,4.6,0,6.9,0,1-.3,1.3-1.3,1.3-6.9,0-13.9,0-20.8,0-1.1,0-1.3-.4-1.3-1.4,0-1.4,0-2.8,0-4.2s0-1.3-.8-1.2c-.7,0-.4.8-.4,1.2,0,1.5,0,2.9,0,4.4,0,.9-.2,1.3-1.2,1.3-1.1,0-2.2,0-3.3,0-.5,0-1.3-.4-1.3.6,0,.9.8.6,1.3.6,1.1,0,2.2,0,3.3,0,.8,0,1.1.2,1.1,1,0,7.1,0,14.2,0,21.3,0,.9-.4,1.2-1.2,1.1-1.3,0-2.6,0-3.9,0-.4,0-.8,0-.8.5,0,.6.3.7.8.7,1.2,0,2.4,0,3.6,0,1.1,0,1.6.3,1.5,1.5,0,2.4,0,4.9,0,7.4,0,.5-.4,1.3.6,1.3.9,0,.6-.9.6-1.3,0-2.4,0-4.9,0-7.4,0-1.1.3-1.4,1.4-1.4,6.8,0,13.6,0,20.4,0,1.3,0,1.7.3,1.7,1.6,0,6.6,0,13.2,0,19.7,0,.8.5,1.8-.8,2.2-.4.2,0,.9.5,1,.4.1.9,0,1.4,0h25.9v-1.2h0ZM173.4,86.9c0,1-.3,1.2-1.2,1.2-7,0-14,0-21,0-1,0-1.2-.4-1.2-1.3,0-3.5,0-7,0-10.5s0-6.9,0-10.3c0-1.1.3-1.4,1.4-1.4,6.9,0,13.8,0,20.6,0,1,0,1.4.2,1.4,1.3,0,7,0,14,0,21h0ZM150,41.4c0-1,.2-1.5,1.4-1.5,6.9,0,13.8,0,20.7,0,1.1,0,1.4.4,1.4,1.5,0,6.8,0,13.7,0,20.5,0,1.1-.2,1.5-1.5,1.5-3.4,0-6.9,0-10.3,0s-6.8,0-10.2,0c-1.2,0-1.5-.4-1.5-1.5,0-6.8,0-13.7,0-20.5h0ZM99.4,101.1c0,3.4,0,6.9,0,10.3,0,1-.2,1.4-1.3,1.4-6.9,0-13.9,0-20.8,0-1.1,0-1.3-.3-1.3-1.3,0-6.9,0-13.9,0-20.8,0-1,.3-1.3,1.3-1.3,6.9,0,13.9,0,20.8,0,1,0,1.3.3,1.3,1.3,0,3.5,0,7,0,10.5h0ZM101.9,89.3c7,0,14.1,0,21.1,0,1.1,0,1.2.4,1.2,1.3,0,3.4,0,6.9,0,10.3s0,7,0,10.5c0,1-.2,1.4-1.3,1.4-7,0-14,0-21,0-.9,0-1.2-.3-1.2-1.2,0-7,0-14,0-21,0-.9.2-1.3,1.2-1.3h0ZM124.1,125.8c0,3.4,0,6.8,0,10.2,0,1-.2,1.5-1.3,1.5-6.9,0-13.9,0-20.8,0-1.2,0-1.4-.4-1.4-1.4,0-6.8,0-13.7,0-20.5,0-1.2.4-1.5,1.5-1.5,6.8,0,13.7,0,20.5,0,1.1,0,1.5.2,1.5,1.5,0,3.4,0,6.9,0,10.3h0Z"/>
        <path class="cls-1" d="M19.8,70.5c2-3.8,4.4-7.2,7.4-10.2,2.9-2.8,6-4,10.2-2.9,7,1.9,14.2,3.2,21.3,4.9,4.2,1,8.1,3.1,12.2,4.5.4.1.8.3,1.2.5,5,2.8,10.1,2.8,15.6,1.6,7.3-1.6,14.8-2.7,22.2-3.9,2.9-.5,5.4,1.2,5.9,4,.5,2.7-1.2,5.2-4.1,5.7-10.6,1.9-21.2,3.7-31.7,5.6-1.2.2-2.4,0-3.5-.5-4.1-1.6-8.2-3.2-12.2-4.8-1.2-.5-1.5-.1-1.8.9-2.5,9.7-5.1,19.4-7.7,29-.2.9,0,1.5.5,2.2,5.5,6,10.8,12,16.3,18,1.8,1.9,2.7,4.1,2.7,6.8.2,10.3.6,20.7.9,31,0,4.3-3.1,7.7-7.2,8-4.4.3-8-3.1-8.2-7.6-.3-9.2-.6-18.5-.8-27.7,0-.9-.3-1.6-1-2.4-4.6-5-9.1-10.1-13.7-15.2-.2.7.2,1.1.4,1.5,1.4,3.2,2.7,6.3,4.1,9.5,1,2.3,1,4.6,0,7-4.7,10.2-9.4,20.4-14.2,30.6-1.5,3.3-4.4,5.1-7.7,4.9-3.3-.2-5.8-2.3-6.9-5.9,0-.1-.2-.3-.2-.4v-3.1c.4-.8.8-1.7,1.2-2.5,4-8.6,7.9-17.1,11.9-25.7.5-1.1.5-2.1,0-3.2-3.6-8.2-7.2-16.4-10.8-24.6-.9-1.9-1.2-3.9-.6-5.9,1.5-5.5,3-11,4.5-16.4.2-.8,0-1.5-.4-2.2-1.9-2.9-4.1-5.6-5.7-8.7v-2.2h0Z"/>
        <path class="cls-1" d="M63.4,44.3c1.9.2,3.7,0,5.5-.6,1.1-.3,1.6,0,1.8,1.1,1.5,6.4-2.3,13.5-8.5,15.9-.8.3-1.5.2-2.3,0-3.7-.8-7.3-1.7-11-2.5-.9-.2-1.6-.6-2.2-1.3-4-4.5-4.6-11.2-1.4-16.4,3.2-5.2,9.4-7.8,15.3-6.2,1.4.4,2.6.3,3.9-.2,2.8-1.1,5.6-1.8,8.7-1.9.4,0,.7,0,1.1,0,1.1.2,2.3.2,2.8,1.4.5,1.2-.2,2.1-1,3-2.9,3.2-6.7,4.9-10.5,6.5-.7.3-1.4.5-2,.8,0,0,0,0,0,.3h0Z"/>
        <path class="cls-1" d="M103.6,150.5c1.2,0,2.5.2,3.8,0,1.7-.3,2,.4,1.9,1.9-.1,2.4,0,4.8,0,7.2,0,.7,0,1.5.9,1.5,1,0,.8-.9.8-1.5,0-2.7,0-5.4,0-8.1s-.1-1.2.8-1.2c.9,0,.5.8.5,1.2,0,1.4,0,2.7,0,4.1,0,.6,0,1.2.8,1.3.9,0,.9-.6.9-1.3,0-1.4,0-2.7,0-4.1,0-1.1.2-1.7,1.4-1.9.6-.1,1.5-.2,1.5-1.1,0-.8-.9-.9-1.5-1.1-3.8-1.1-7.7-1.2-11.6-1.2-.6,0-1.2,0-1.7,0-.7,0-.7-.7-.8-1.2,0-.6.5-.4.8-.4,4.9-.2,9.7,0,14.4,1.3.6.2,1.2.4,1.8.7,1.3.6,1.8,1.4,1.5,2.9-1.2,6.6-2.4,13.2-3.3,19.9-.3,1.8-1.2,2.4-2.7,2.7-4.1.9-8.3,1.1-12.4.9-2.3-.2-4.7-.3-6.9-1.1-1.1-.4-2.6-3.7-2.1-4.8.2-.4.5-.3.8-.4,6.3-.8,10.3-4.2,11.9-10.3.1-.4.4-.7.7-1,.5-.6.6-1.2,0-1.8-.4-.5-.9-.6-1.6-.4-.7.4-1.1,1-.7,1.7.6,1,.2,1.8,0,2.7-1.8,4.7-5.2,7.3-10.2,7.9-.9.1-1.3-.1-1.4-1.1-.8-5.1-1.6-10.1-2.6-15.1-.2-1.4.2-2.1,1.3-2.6,1-.4,2.1-.8,3.1-1.1.7-.2.9.2,1.1.8.3.8-.3.7-.7.9-.7.3-2,.3-1.9,1.3,0,.9,1.2,1,2,1.2,3.1.8,6.2.9,9.3.9h0Z"/>
        <path class="cls-1" d="M128.8,78.2c0,.4-.2.5-.4.7-2.8,2-5.6,4-8.4,6-.6.4-.9.2-1.2-.3-1.8-2.5-3.6-5-5.4-7.5-.5-.7-.4-.9.4-1.2.5-.2,1-.4,1.3-.8,1.1-1.2,1.9-1.9,2.9,0,.3.6,1,.5,1.5.1.4-.4.6-.9.3-1.4-.2-.3-.4-.6-.6-.9-.9-1.2-1.5-2.3-1.6-3.9,0-2.7-1.7-4.7-4.3-5.6-.9-.3-1.7-.8-2.2-1.6-.3-.6-.9-1-1.6-.7-.6.2-.8.8-.6,1.4.2.5,0,.7-.5.7,0,0-.2,0-.3,0-2.7.6-4.9-.3-6.7-2.8-1.1-1.5-.9-2.8.6-3.8,2.2-1.6,4.4-3.1,6.6-4.8.6-.5.9-.5,1.4.2,6,8.5,12.1,16.9,18.1,25.3.2.2.4.5.5.7h0Z"/>
        <path class="cls-1" d="M99.3,61c1.3,1.2,1.6,2.5,2.6,3.3-1.4.7-2.6.3-3.8.3-6.8,0-13.7,0-20.5,0-1,0-1.8,0-1.6,1.4,0,.3,0,.7-.4.7-.4,0-.8-.2-.8-.6.2-1.8-1.1-1.5-2.1-1.5-1.7,0-3.4,0-5.1-1.2,2.1,0,3.9,0,5.7,0,1.2,0,1.5-.3,1.5-1.5,0-6.5,0-12.9,0-19.4,0-.8-.1-1.6,1-1.9.3.5.2,1.1.2,1.6,0,6.4,0,12.8,0,19.2,0,1.5.3,2,1.9,2,6.5-.1,13,0,19.6,0,1.5,0,2.3-.2,1.8-2.4h0Z"/>
        <path class="cls-1" d="M92.9,131.4c.7,0,1.1.4,1.4,1.1,1.8,4.5,3.6,9.1,5.4,13.6.4,1.1-.3,1.2-1,1.5-.7.3-1.3.3-1.6-.6-1.8-4.6-3.6-9.1-5.4-13.6-.4-1.1.2-2,1.2-2h0Z"/>
        <path class="cls-1" d="M84.8,138.6c-1.8,0-3.5,0-5.3,0-.5,0-1.2.3-1.2-.6,0-.9.7-.6,1.1-.6,3.6,0,7.2,0,10.8,0,.6,0,1.3,0,1.3.8,0,.9-.8.4-1.2.5-1.8,0-3.7,0-5.5,0h0Z"/>
        <path class="cls-1" d="M55.3,138.6h-1.7c-.3,0-.6-.1-.6-.5,0-.4.2-.7.6-.7h3.4c.4,0,.7.1.7.6,0,.5-.3.6-.7.6h-1.7,0Z"/>
        <g>
          <path class="cls-1" d="M168.8,126.1c0,7,0,13.9,0,20.9,0,3.2-.6,5.9-2.9,8.2-.7.7-1,1.3-.2,2.2.8.9.9,2.2,1,3.4,0,.6-.2.8-.8.8-5.6,0-11.3,0-16.9,0-.7,0-.9-.2-.9-.9,0-1.4.3-2.7,1.2-3.8.4-.4.5-.8,0-1.2-2.9-2.7-3.7-6.2-3.3-10.1,0-.8,0-1.6-.1-2.4-.5-2-.8-2.2-2.8-2.3-3.1-.1-5.3-2.3-5.3-5.4v-32.5c0-3.2,2.1-5.4,5.3-5.4,6.7,0,13.4,0,20.2,0,3.3,0,5.4,2.3,5.4,5.6,0,7.6,0,15.2,0,22.8h0ZM150.3,136.9v-1.1c0-3.4,0-6.9,0-10.3,0-1.9,1.3-3.1,3.2-3.1,1.7,0,2.9,1.3,2.9,3.2,0,2.2,0,4.4,0,6.6,0,1.3,1,.9,1.6,1.1.8.2.4-.5.5-.9.2-1.1.8-1.6,1.9-1.7,3.6-.3,4,0,4.2,3.6,0,1.2,1.1.9,1.8,1,.7.1.3-.6.4-.9,0-7,0-14,0-21s0-6.8,0-10.2c0-2.1-1.2-3.5-3.1-3.5-6.8,0-13.7,0-20.5,0-1.8,0-3.1,1.3-3.1,3,0,11.1,0,22.1,0,33.2,0,1.4.9,2.4,2.2,2.9,1.2.4,1.6.2,2-1,0-.3.2-.6.3-.9-.2,0-.3,0-.4,0-1.3-.1-2-.7-2.1-1.9-.3-2.3.1-3.7,1.4-4.1,0,0,.1,0,.2,0,3.5-.8,4.9.5,4.6,4,0,.2,0,.5-.1.7-.1.4,0,.6.3.7.6.2,1.1.5,1.9.8h0ZM154.3,135.6v-9.7c0-.7-.1-1.3-.9-1.3-.9,0-1.1.6-1.1,1.3,0,.3,0,.6,0,.9,0,6.1,0,12.3,0,18.4,0,.8-.2,1-1,1-.7,0-1.1-.1-1-.9,0-1.2,0-2.5,0-3.8,0-1.9-1.3-3.4-2.9-3.6-1.1-.1-1.5.3-.9,1.2,1.6,2.6,2.2,5.5,1.8,8.4-.4,3.2,1.5,5.2,3.3,7.4.3.4.7.3,1.1.3,2.6,0,5.2-.1,7.9,0,2.1.2,3.4-.5,4.6-2.2,1.1-1.6,1.9-3.2,1.8-5.2,0-2.9,0-5.9,0-8.8s0-.7,0-1c-.2-.8-1-.9-1.6-.9-.8,0-.4.7-.4,1.1,0,2.3,0,4.5,0,6.8,0,.9-.3,1-1.1,1s-1.1-.2-1.1-1c0-2.6,0-5.2,0-7.9,0-1.2-1-.9-1.6-1-.7-.1-.4.6-.4.9,0,2.7,0,5.3,0,8,0,.7-.2,1-1,1s-1.1-.2-1.1-1c0-2.9,0-5.9,0-8.8,0-1.3-1-1-1.7-1.1-.9-.2-.4.7-.4,1,0,3,0,6,0,9,0,.9-.4.9-1,.9s-1.1,0-1.1-.9c0-3.2,0-6.4,0-9.6h0ZM157.4,159.5c1.8,0,3.7,0,5.5,0,.5,0,1.3.4,1.5-.2.2-.6-.5-1.1-.9-1.6-.3-.4-.8-.3-1.2-.3-3.2,0-6.3,0-9.5,0-1.1,0-1.6.5-2.1,1.3-.3.6-.3.8.5.8,2.1,0,4.1,0,6.2,0h0ZM145,134.7c.7,0,1.2.1,1.2-.9,0-.7,0-1.2-1-1.1-.6,0-1.2-.1-1.2.9,0,.7,0,1.3,1,1.1h0ZM161.6,132.8c-.4,0-1.1-.3-1,.6,0,1.1,1.1.8,1.6.9.6.2.3-.4.4-.7.2-.8-.2-1-.9-.9h0Z"/>
          <path class="cls-1" d="M153.4,101.8h8.7c1.9,0,2.6.7,2.6,2.6,0,1.8,0,3.6,0,5.4,0,1.4-.8,2.3-2.2,2.3-6.1,0-12.1,0-18.2,0-1.4,0-2.2-.8-2.2-2.2,0-2,0-4,0-6,0-1.4.9-2.1,2.3-2.2,3.1,0,6.1,0,9.1,0h0ZM153.4,103.9c-2.8,0-5.6,0-8.4,0-.8,0-1,.2-1,1,0,1.4,0,2.9,0,4.3,0,.6.1.8.8.8,5.7,0,11.3,0,17,0,.6,0,.8-.2.8-.8,0-1.4,0-2.9,0-4.3,0-.8-.2-1-1-1-2.7,0-5.5,0-8.2,0h0Z"/>
          <path class="cls-1" d="M145.2,122.5c2.5,0,3.1.6,3.1,3.1s-.6,3-3.3,3-3-.6-3-3.2.5-2.9,3.2-2.9h0ZM145.2,126.4c.9.3.9-.3.9-1,0-1-.4-.9-1.1-1-.9,0-1,.3-1,1.1,0,.9.4,1,1.2.9h0Z"/>
          <path class="cls-1" d="M158.5,125.5c-.2-2.3.4-3.2,3.2-3.1,2.4.1,2.9.5,2.9,3.2s-.5,2.9-3.4,2.9-2.8-.5-2.8-3.1h0ZM161.5,126.5c.7,0,1.2,0,1.1-.8,0-.7,0-1.2-.9-1.1-.8,0-1.1.2-1.1,1,0,.7.2,1.1,1,1Z"/>
          <path class="cls-1" d="M145.1,114.2c2.6,0,3.1.6,3.1,3.1s-.6,3-3.3,3-2.9-.6-2.9-3.1.5-3,3.1-3h0ZM145.1,118.2c.9.2,1-.2,1-1,0-.8-.2-1-1.1-1.1-.9,0-1.1.3-1.1,1.1,0,.9.4,1.1,1.1.9h0Z"/>
          <path class="cls-1" d="M158.5,117.2c0-2.6.4-3,3.1-3s3,.5,3,3.2-.6,2.9-3.2,2.9c-2.4,0-2.9-.5-2.9-3.1h0ZM162.5,117.2c.3-.9-.3-.9-1-1-.9,0-.9.4-1,1.1,0,.8.3.9,1,.9.8,0,1.2-.2,1-1.1h0Z"/>
          <path class="cls-1" d="M150.3,117.2c0-2.6.4-3,3.2-3s3,.5,3,3.1-.6,3-3.3,3c-2.4,0-2.9-.6-2.9-3.1h0ZM153.4,118.2c.9.2,1-.3,1-1,0-.9-.3-1-1.1-1-.9,0-1,.3-1,1.1,0,.9.3,1.1,1.1.9h0Z"/>
        </g>
      </g>
    </g>
  </g>
</svg>