<?xml version="1.0" encoding="UTF-8"?>
<svg xmlns="http://www.w3.org/2000/svg" version="1.1" viewBox="0 0 200 200">
  <defs>
    <style>
      .cls-1 {
        fill: #fff;
      }

      .cls-2 {
        fill: none;
      }
    </style>
  </defs>
  <!-- Generator: Adobe Illustrator 28.7.2, SVG Export Plug-In . SVG Version: 1.2.0 Build 154)  -->
  <g>
    <g id="Layer_1">
      <rect class="cls-2" width="200" height="200"/>
      <g>
        <path class="cls-1" d="M138.9,127.2c-4.1-3.6-8-6.8-13.8-5.3-2.3.6-4,1.9-5.7,3.3-6.1,5-14.1,5.2-20.1.2-2.5-2.1-5.1-3.7-8.4-3.8-1.3,0-2.3-.6-2.1-2,.2-1.4,1.3-1.7,2.5-1.6,3.5.2,6.4,1.6,9.2,3.7,6.6,5.2,11.1,5.1,17.7-.2,5.7-4.6,13.4-4.7,19.2-.2,1.1.9,2.2,1.8,3.4,2.6,1.9,1.3,3.8,1.7,6,.6,4.1-2,8.5-3.3,12.6-5.2,5.4-2.4,10.8-1.5,15.5,2.2,2.6,2.1,5.1,3.9,8.6,4.1,1.3,0,2.6.6,2.2,2.2-.3,1.5-1.6,1.5-2.9,1.5-4-.2-7.1-2.2-10-4.7-3.1-2.6-6.6-3.3-10.5-2.3-1.3.3-2.3.7-1.6,2.5.5,1.3-.4,2.5-1,3.7-3.1,6.1-6.1,12.1-9.2,18.2-.4.8-.7,1.6-1.2,2.7,2.7-.3,4.4-1.8,6.1-3.1,7.1-5.4,13.1-5.4,20.2.1,2.4,1.8,4.8,3.4,7.9,3.4s2.3.6,2.3,1.9c0,1.7-1.3,1.7-2.6,1.8-3.5.1-6.2-1.5-8.9-3.5-6.8-5.2-11-5.3-17.8-.1-2.6,1.9-5.2,3.6-8.5,3.6-1.5,0-1.9,1.2-2.2,2.2-1.6,5.4-5.3,7.4-10.6,8.2-3.1.4-5.1-.1-7.1-2.5-3.8-4.5-3.9-4.4-8.2-.5-.8.7-1.6,1.6-2.5,2.2-1.2.9-2,1.8-1,3.5.9,1.4.2,2.8-.9,3.8-4.8,4.4-9.6,8.8-14.4,13.1-1.7,1.6-3.5,1.4-5.1-.2,0,0-.1-.1-.2-.2-5.3-5.2-5.2-6.1.2-11,3.6-3.3,7.3-6.5,10.8-9.8,1.6-1.5,3.3-2.1,5.2-.9,1.1.7,1.6.3,2.3-.3,1.6-1.5,3.2-3.2,5-4.5,2.4-1.7,2.1-3.1.2-4.8-.8-.7-1.2-1-2.2-.4-6.7,3.8-13,2.9-18.8-2.1-2.2-1.8-4.5-3.1-7.4-3.1-1.3,0-2.2-.6-2.2-2,0-1.5,1.2-1.7,2.4-1.7,4,0,7.2,1.9,10.1,4.4,3.7,3.1,7.9,3.9,12.5,2.1,1-.4,1.5-.9,1.6-2.4.2-3.6,1.7-7,3-10.4.4-1,1.6-1.1,2.6-1.5,5.9-2.3,11.8-4.6,18-7h0ZM157.3,124.3c-1.6.6-2.5.8-3.3,1.2-9.7,3.8-19.4,7.5-29.2,11.3-5.5,2.1-6.7,7.6-2.9,12.1,1.9,2.3,3.3,2.7,5.3.2.9-1.1,2.2-2.3,3.6-.9,1.5,1.5,0,2.7-1.1,3.4-2.9,1.9-2.6,3.6,0,5.5.3.2.6.6.8.9,2.5,2.8,8.8,2,10.5-1.4,5-9.6,9.9-19.3,14.8-29,.4-.9.8-1.8,1.6-3.4h0ZM98.8,180.1c.4-.3.8-.6,1.2-.9,4-3.6,7.9-7.3,12-10.8,1.7-1.5,0-2-.6-2.8-.7-.9-1.2-1.9-2.6-.6-3.9,3.7-8,7.2-11.9,10.8-.5.4-1.3.9-.7,1.7.7.9,1.4,2,2.7,2.6h0Z"/>
        <path class="cls-1" d="M183.6,104.9c-4.2-.2-6.9-1.6-9.4-3.7-2.2-1.8-4.5-3.4-7.5-3.7-3.5-.4-6.5.8-9.3,2.9-8.4,6.3-13.3,6.2-21.6,0-5.3-3.9-10.6-4.3-15.6,0-6.7,5.8-15.3,6-21.8,0-2-1.8-4.4-2.9-7.2-3-1.3,0-2.6-.5-2.4-2.1.1-1.7,1.5-1.6,2.8-1.6,3.5,0,6.4,1.6,9.1,3.8,6,4.8,11,4.9,17,0,6.5-5.2,13.5-5.3,20-.2,6.6,5.1,11.1,5.1,17.6,0,6.9-5.2,13.1-5.3,20,0,2.4,1.8,4.9,3.4,7.9,3.6,1.3,0,2.6.3,2.5,1.9-.1,1.8-1.5,1.9-2.1,1.9h0Z"/>
        <path class="cls-1" d="M56.4,117.3c0,4.3-3,7.4-7.2,7.4-4.1,0-7.4-3.1-7.4-7.3,0-4.2,3.3-7.6,7.5-7.6,4.2,0,7.2,3.2,7.2,7.5h0ZM52.7,117.9c0-2.7-1.4-4.2-3.5-4.3-2.1,0-4,1.7-3.8,3.8.2,2.2,1.4,3.6,3.7,3.6,2.3,0,3.5-1.3,3.6-3.1Z"/>
        <path class="cls-1" d="M56.4,51.3c0,4.3-2.8,7.3-7,7.4-4.3,0-7.6-3-7.6-7.3,0-4.2,3.2-7.5,7.5-7.5,4.2,0,7.2,3.1,7.2,7.4ZM48.3,55c3,0,4.4-1.3,4.4-3.5,0-2.3-1.2-3.6-3.4-3.8-2.1-.2-4,1.6-3.8,3.8.1,2.2,1.3,3.5,2.8,3.6Z"/>
        <g>
          <path class="cls-1" d="M168.4,51.3c0,8.9,0,17.7,0,26.6,0,4.2-2.5,7.4-6.5,8.5-.7.2-1.4.1-2.1.1-13.2,0-26.3,0-39.5,0-3.9,0-8.6-2.9-8.6-8.7,0-7.5,0-15,0-22.6s0-20.6,0-30.9c0-4.2,2.5-7.4,6.5-8.5.7-.2,1.4-.1,2.1-.1,13.2,0,26.3,0,39.5,0,4,0,8.6,3,8.6,8.7,0,9,0,17.9,0,26.9h0ZM114.2,51.1v26.7c0,4,2.3,6.3,6.3,6.3,13,0,26.1,0,39.1,0s6.4-2.3,6.4-6.4V24.6c0-4.1-2.3-6.4-6.4-6.4h-38.9c-4.2,0-6.5,2.3-6.5,6.5v26.5h0Z"/>
          <path class="cls-1" d="M140.1,37h-19.2c-3.1,0-4.3-1.3-4.3-4.3s.1-5.6,0-8.5c0-2.1,1.5-3.9,3.8-3.9h38.8c3.2,0,4.5,1.2,4.5,4.4s-.1,5.5,0,8.2c.1,2.6-1.9,4.1-4.1,4-6.5,0-13,0-19.5,0h0ZM140,34.6c6.5,0,13.1,0,19.6,0,1.3,0,1.8-.5,1.8-1.8,0-2.7,0-5.5,0-8.2,0-1.5-.4-1.9-1.9-1.9h-38.7c-1.5,0-1.9.4-1.9,1.9,0,2.6,0,5.3,0,7.9,0,1.7.3,2,2.1,2h19.1,0Z"/>
          <path class="cls-1" d="M163.6,68.9v9.2c0,2.2-1.4,3.6-3.5,3.7-2.3,0-4.6,0-7,0-2.2,0-3.5-1.5-3.5-3.7,0-6.2,0-12.4,0-18.6,0-2.2,1.4-3.6,3.6-3.6,2.2,0,4.5,0,6.7,0,2.4,0,3.7,1.4,3.7,3.8v9.2h0ZM161.3,68.8c0-2.9,0-5.9,0-8.8,0-1.2-.4-1.7-1.7-1.7-2.1,0-4.1,0-6.2,0-1.1,0-1.6.5-1.6,1.6v18c0,1.2.6,1.7,1.7,1.7,1.9,0,3.8,0,5.8,0s2-.3,2-2c0-2.9,0-5.8,0-8.7h0Z"/>
          <path class="cls-1" d="M140.1,67.7c-1.1,0-2.2,0-3.4,0-2.1,0-3.6-1.4-3.7-3.6,0-1.6,0-3.1,0-4.7,0-2.1,1.6-3.5,3.6-3.5,2.3,0,4.6,0,7,0,2.1,0,3.5,1.5,3.6,3.6,0,1.6,0,3.1,0,4.7-.1,2.1-1.6,3.5-3.6,3.5-1.2,0-2.3,0-3.5,0h0ZM140,65.2c1.2,0,2.3,0,3.5,0,.9,0,1.3-.4,1.3-1.3,0-1.5,0-2.9,0-4.4,0-.8-.4-1.2-1.2-1.2h-6.8c-.9,0-1.3.5-1.3,1.3v4.3c0,.9.4,1.4,1.4,1.4,1.1,0,2.1,0,3.2,0h0Z"/>
          <path class="cls-1" d="M140,53.4h-3.4c-2.1,0-3.6-1.3-3.7-3.5,0-1.6,0-3.1,0-4.7,0-2.1,1.6-3.6,3.7-3.6,2.3,0,4.6,0,6.8,0,2.2,0,3.6,1.6,3.7,3.8,0,1.4,0,2.8,0,4.2,0,2.4-1.5,3.8-3.9,3.8h-3.4ZM140.2,44c-1.1,0-2.2,0-3.4,0-1,0-1.5.5-1.5,1.5,0,1.4,0,2.8,0,4.2,0,1,.5,1.5,1.5,1.5h6.4c1,0,1.5-.5,1.5-1.5,0-1.3,0-2.7,0-4,0-1.2-.5-1.6-1.6-1.6h-2.9,0Z"/>
          <path class="cls-1" d="M140.1,70.1h3.4c2.2,0,3.7,1.3,3.8,3.5,0,1.6,0,3.1,0,4.7,0,2.1-1.6,3.6-3.7,3.6-2.2,0-4.5,0-6.7,0-2.3,0-3.7-1.6-3.8-3.8,0-1.4,0-2.9,0-4.3,0-2.2,1.5-3.6,3.8-3.6h3.4ZM140.1,79.5h3.2c1,0,1.6-.5,1.5-1.6,0-1.3,0-2.7,0-4,0-1-.4-1.5-1.4-1.5h-6.6c-.9,0-1.4.4-1.4,1.4,0,1.4,0,2.8,0,4.2,0,1.1.6,1.5,1.6,1.5h3.1,0Z"/>
          <path class="cls-1" d="M123.5,53.4c-1.2,0-2.4,0-3.6,0-1.9,0-3.3-1.4-3.3-3.3,0-1.6,0-3.1,0-4.7,0-2.2,1.3-3.7,3.5-3.8,2.4,0,4.7,0,7.1,0,2.1,0,3.4,1.5,3.5,3.6,0,1.6,0,3.2,0,4.8,0,1.9-1.5,3.3-3.3,3.3-1.2,0-2.5,0-3.8,0h0ZM123.6,51.1h3.2c1,0,1.5-.5,1.5-1.5,0-1.4,0-2.8,0-4.2,0-1-.6-1.5-1.6-1.5h-6.4c-1,0-1.5.5-1.5,1.5v4c0,1,.5,1.6,1.5,1.6,1.1,0,2.2,0,3.2,0h0Z"/>
          <path class="cls-1" d="M156.6,53.4c-1.2,0-2.4,0-3.6,0-1.9,0-3.4-1.4-3.4-3.3,0-1.6,0-3.1,0-4.7,0-2.2,1.4-3.6,3.5-3.7,2.3,0,4.6,0,7,0,2.2,0,3.5,1.5,3.5,3.7,0,1.6,0,3.1,0,4.7,0,1.9-1.4,3.3-3.4,3.4-1.2,0-2.4,0-3.6,0h0ZM156.6,51.1h3.4c.9,0,1.4-.5,1.4-1.4,0-1.4,0-2.8,0-4.2,0-1-.6-1.5-1.6-1.5h-6.3c-1.1,0-1.6.6-1.6,1.6,0,1.3,0,2.7,0,4,0,1,.5,1.5,1.5,1.5h3.2Z"/>
          <path class="cls-1" d="M123.6,70.1c1.2,0,2.4,0,3.6,0,1.9,0,3.3,1.4,3.3,3.3,0,1.6,0,3.1,0,4.7,0,2.3-1.4,3.7-3.6,3.8-2.3,0-4.6,0-6.8,0-2.3,0-3.6-1.5-3.6-3.8,0-1.6,0-3.1,0-4.7,0-1.9,1.4-3.3,3.3-3.3,1.2,0,2.5,0,3.8,0h0ZM123.4,79.5c1.1,0,2.2,0,3.2,0,1.1,0,1.7-.5,1.7-1.6v-3.9c0-1-.4-1.6-1.5-1.6-2.1,0-4.3,0-6.4,0-1,0-1.5.4-1.5,1.4,0,1.4,0,2.8,0,4.2,0,1,.5,1.5,1.5,1.5h3.1,0Z"/>
          <path class="cls-1" d="M123.6,67.7c-1.1,0-2.2,0-3.3,0-2.3,0-3.7-1.4-3.7-3.7,0-1.5,0-3,0-4.6,0-2,1.4-3.5,3.4-3.5,2.4,0,4.8,0,7.2,0,2,0,3.4,1.5,3.4,3.5,0,1.6,0,3.1,0,4.7,0,2-1.4,3.4-3.4,3.5-1.2,0-2.4,0-3.6,0h0ZM123.6,58.2c-1.1,0-2.1,0-3.2,0-1,0-1.5.4-1.5,1.4,0,1.4,0,2.8,0,4.2,0,1,.5,1.4,1.5,1.4,2.1,0,4.3,0,6.4,0,1,0,1.5-.4,1.5-1.4,0-1.4,0-2.8,0-4.2,0-1-.5-1.5-1.5-1.4-1.1,0-2.1,0-3.2,0h0Z"/>
          <path class="cls-1" d="M153.1,28.5c0-.7-.1-1.5.2-2.3.7-1.6,2.3-2.5,4-2.2,1.6.3,2.7,1.6,2.8,3.3,0,.9,0,1.7,0,2.5,0,2-1.6,3.5-3.5,3.5-1.9,0-3.5-1.6-3.5-3.6v-1.3ZM157.7,28.9c0-.4,0-.8,0-1.1,0-.8-.4-1.3-1.1-1.3s-1.1.5-1.1,1.2,0,.8,0,1.2c0,.9-.3,2.2,1.1,2.2,1.4,0,1-1.4,1.1-2.2h0Z"/>
        </g>
        <path class="cls-1" d="M83.9,88.4v-7.4c0-.2,0-.5,0-.8,0-3.7,0-7.3,0-10.9v-2.6c0-3.7,0-7.4,0-11.1,0-.3,0-.6,0-.8v-6.7c0-.3,0-.7,0-1.2,0-1.8,0-3.7,0-5.5v-12.7c0-2,0-3.9,0-5.8,0-.4,0-.7,0-1v-5.2H18.6c-4.2,0-4.4.1-4.4,4.2v127.2c0,4.1.1,4.2,4.3,4.2h61.3c3.9,0,4,0,4-3.9,0-19.5,0-39.1,0-58.6,0-.5,0-.9,0-1.3ZM53.2,20.1c8.3,0,16.7,0,25,0,1.7,0,2.1.6,2,2.1,0,4.2,0,8.3,0,12.5s0,8.3,0,12.5c0,1.9-.7,2.2-2.3,2-13.6-1.6-25.1-13.4-26.7-27.1-.2-1.9.5-2,1.9-2h0ZM70.7,51.4c-10.4,4.1-17.4,11-21.5,21.5-4.2-10.3-11-17.4-21.5-21.4,10.3-4.2,17.4-11.2,21.5-21.6,4.2,10.5,11.2,17.4,21.5,21.5h0ZM18,88.2c0-1.6.5-2.1,2.1-2.1,8.4,0,16.9,0,25.3,0,1.7,0,2,.6,1.8,2.2-2.3,14-11.5,23.6-25.3,26.6-2.5.5-3.8-.4-3.8-2.9v-11.3c0-4.2,0-8.3,0-12.5ZM17.9,55.8c0-2.3,1-2.3,2.7-2.2,10.6.8,21.8,10.2,25.2,21.5.3,1.2.6,2.4.8,3.6q.7,3.8-3.3,3.8h-10.7c-4.2,0-8.3,0-12.5,0-1.7,0-2.2-.5-2.2-2.3,0-8.1.1-16.3,0-24.4h0ZM17.9,22.7c0-1.9.4-2.7,2.5-2.6,4.1.1,8.1,0,12.2,0s8.3,0,12.5,0c1.5,0,2.2.2,2,2-2,13.9-12.3,24.6-26.1,27-2.4.4-3.2,0-3.1-2.6.2-7.9.1-15.9,0-23.8h0ZM42.6,148.4h-9.8c-3.9,0-7.7-.1-11.6,0-2.6.1-3.5-.5-3.4-3.3.2-7.5.2-15,0-22.5,0-2.9.9-3.4,3.4-3.1,11.7,1.5,23.2,12.5,25.3,24.2.5,3.1-.8,4.6-3.9,4.6h0ZM27.8,117.4c12-6.1,13.9-7.9,21.5-21.3,4.1,10.1,11.1,17.1,21.2,21.1-12.2,6.2-14.2,8.2-21.5,21.3-4.1-10.1-11-17.1-21.2-21.1h0ZM78,148.5c-8.2,0-16.5,0-24.7,0-1.7,0-2.2-.3-2-2.2,1.8-13.1,11.7-23.8,24.8-26.5,3.9-.8,4.1-.6,4.1,3.3v11c0,4.1,0,8.1,0,12.2,0,1.8-.6,2.2-2.3,2.2h0ZM77.7,115.2c-13.5-1.8-24.8-13.4-26.4-27-.2-1.7.2-2.1,1.8-2.1,8.3,0,16.7,0,25,0,1.9,0,2.2.8,2.1,2.4,0,4.2,0,8.3,0,12.5s-.1,7.9,0,11.9c0,2.1-.6,2.6-2.6,2.4h0ZM77.2,82.5c-3.8-.2-7.7,0-11.6,0s-7.9,0-11.9,0c-2,0-2.8-.2-2.4-2.6,2-13,11.8-23.4,24.7-26.1,3.9-.8,4.1-.6,4.1,3.2,0,7.5-.1,15,0,22.5,0,2.5-.8,3.1-3.1,3h0Z"/>
      </g>
    </g>
  </g>
</svg>