<?xml version="1.0" encoding="UTF-8"?>
<svg xmlns="http://www.w3.org/2000/svg" version="1.1" viewBox="0 0 200 200">
  <defs>
    <style>
      .cls-1 {
        fill: #fff;
      }

      .cls-2 {
        fill: none;
      }
    </style>
  </defs>
  <!-- Generator: Adobe Illustrator 28.7.2, SVG Export Plug-In . SVG Version: 1.2.0 Build 154)  -->
  <g>
    <g id="Layer_1">
      <rect class="cls-2" width="200" height="200"/>
      <g>
        <g>
          <path class="cls-1" d="M130.9,93.9c-.2-8.1-.8-16.2-1.9-24.2-.6-4.7,1-8.7,4.2-12,.6-.7,1.2-1.3,1-2.3-.2-.8-.6-1.4-1.4-1.7-.9-.3-1.7,0-2.4.7-2.1,2-4.5,3.2-7.3,3.7-1.4.2-2.8.3-4.2,0-2.8-.4-5.7-.8-8.5-1.1-1.2-.1-1.8-.8-1.6-1.7.1-.9.8-1.3,1.9-1.2,2.7.2,5.3.6,8,1,3.3.5,6.4-.3,9-2.5,1-.8,2.1-1.7,3.3-2.1h2c3.3,1.3,4.5,3.5,3.8,6.6-.2.8-.5,1.5-1.1,2.1-3.4,3.2-4.3,7.1-3.7,11.8,1.6,11.6,2,23.3,1.6,35.1M82.2,55c7-1.2,14.1-1.5,21.2-1.3,0,0,.2,0,.3,0,1,.1,1.5.7,1.5,1.5,0,.9-.7,1.5-1.7,1.5-3.2,0-6.5,0-9.7.1-4.2.2-8.4.7-12.5,1.3"/>
          <path class="cls-1" d="M134.1,94.6c.2,10.1-.2,20.2-1.4,30.3-.2,1.8-.6,3.7-.6,5.6,0,3.1,1.3,5.6,3.4,7.8,1.9,1.9,1.9,5.2.2,7.2-.7.9-1.8,1.2-2.8,1.6h-1.8c-1.4-.4-2.5-1.2-3.5-2.2-3-2.6-6.4-2.8-10.2-2.2-7,1.2-14.1,1.5-21.2,1.3,0,0-.2,0-.3,0-1-.1-1.5-.7-1.5-1.5,0-.9.7-1.5,1.7-1.4,3.2,0,6.5,0,9.7-.1,4.2-.2,8.4-.7,12.5-1.3,4.5-.7,8.5.5,11.9,3.6,1.5,1.4,3.3,1.1,3.8-.7.3-1-.2-1.7-.9-2.4-2.1-2.1-3.4-4.6-3.9-7.5-.4-2.1,0-4.2.2-6.3,1.3-10.5,1.9-21,1.6-31.6"/>
        </g>
        <g>
          <path class="cls-1" d="M183.4,93.9c-.2-8.1-.8-16.2-1.9-24.2-.6-4.7,1-8.7,4.2-12,.6-.7,1.2-1.3,1-2.3-.2-.8-.6-1.4-1.4-1.7-.9-.3-1.7,0-2.4.7-2.1,2-4.5,3.2-7.3,3.7-1.4.2-2.8.3-4.2,0-2.8-.4-5.7-.8-8.5-1.1-1.2-.1-1.8-.8-1.6-1.7.1-.9.8-1.3,1.9-1.2,2.7.2,5.4.6,8,1,3.3.5,6.4-.3,9-2.5,1-.8,2.1-1.7,3.3-2.1h2c3.3,1.3,4.5,3.5,3.8,6.6-.2.8-.5,1.5-1.1,2.1-3.4,3.2-4.3,7.1-3.7,11.8,1.6,11.6,2,23.3,1.6,35.1M134.7,55c7-1.2,14.1-1.5,21.2-1.3.1,0,.2,0,.3,0,1,.1,1.5.7,1.5,1.5,0,.9-.7,1.5-1.7,1.5-3.2,0-6.5,0-9.7.1-4.2.2-8.4.7-12.5,1.3"/>
          <path class="cls-1" d="M186.5,94.6c.2,10.1-.2,20.2-1.4,30.3-.2,1.8-.6,3.7-.6,5.6,0,3.1,1.3,5.6,3.4,7.8,1.9,1.9,1.9,5.2.2,7.2-.7.9-1.8,1.2-2.8,1.6h-1.8c-1.4-.4-2.5-1.2-3.5-2.2-3-2.6-6.4-2.8-10.2-2.2-7,1.2-25.5,1.5-32.6,1.3-.1,0-.2,0-.3,0-1-.1-1.5-.7-1.5-1.5,0-.9.7-1.5,1.7-1.4,3.2,0,6.5,0,9.7-.1,4.2-.2,19.8-.7,23.9-1.3,4.5-.7,8.5.5,11.9,3.6,1.5,1.4,3.3,1.1,3.8-.7.3-1-.2-1.7-.9-2.4-2.1-2.1-3.4-4.6-3.9-7.5-.4-2.1,0-4.2.2-6.3,1.3-10.5,1.9-21,1.6-31.6"/>
        </g>
        <g>
          <polyline class="cls-1" points="33.8 83.1 38.6 85.3 38.6 85.3 42.1 80.8 42.3 80.6 47.9 81.2 53.5 80.6 53.7 80.8 57.2 85.3 57.2 85.3 62 83.1 59.9 80.7 62.1 77.7 59.3 76.1 57.1 76.5 55.4 78.7 54.7 78.1 55.8 76.7 40 76.7 41.1 78.1 40.4 78.7 38.7 76.5 36.5 76.1 33.7 77.7 35.9 80.7"/>
          <polyline class="cls-1" points="43.2 98 45.4 96.9 45 96 42.8 97.1 42.7 97.2 43.2 98"/>
          <polyline class="cls-1" points="52.2 99.1 49.9 97.8 49.4 98.7 50.4 99.2 48.4 99.2 48.4 96.2 51.3 95.1 53.4 96.1 53.8 96.3 54.2 95.4 52.1 94.5 51.2 91.4 51.2 90.9 54.4 89.3 54.5 88.2 51.2 89.8 51.2 89.3 56.7 86.6 57 86.5 56.4 85.7 50.2 88.7 50.2 91.6 51 94 51 94 44.8 94 44.8 94 45.5 91.6 45.5 88.7 39.5 85.7 39.5 85.7 39 86.6 39.1 86.6 44.6 89.3 44.6 89.8 41.3 88.2 41.4 89.3 44.6 90.9 44.6 91.4 43.7 94.5 41.7 95.4 42.2 96.2 42.4 96.1 44.5 95.1 47.4 96.2 47.4 99.2 45.4 99.2 46.4 98.7 45.9 97.8 43.7 99 43 99.4 42.6 98.6 42.5 98.4 41 95.9 39.1 95.1 38.1 86.1 38 86.1 33.6 84.1 34 92.7 34.3 98.9 38.5 102.3 42.9 99.5 43.3 100.2 39.2 103 43 106.7 47.4 105.9 47.4 103.3 45.8 103.3 44.1 100.2 51.7 100.2 50 103.3 48.4 103.3 48.4 105.9 52.8 106.7 56.6 103 52.4 100.2 52.9 99.5 52.2 99.1"/>
          <polyline class="cls-1" points="57.8 86.1 57.8 86.2 56.8 95.1 54.9 95.9 52.9 99.5 57.3 102.3 61.5 98.9 61.8 92.7 62.2 84.1"/>
          <polyline class="cls-1" points="50.3 96.9 52.6 98 52.7 98.1 53.2 97.2 53 97.1 50.8 96"/>
        </g>
        <g>
          <polyline class="cls-1" points="91.1 83.1 95.8 85.3 95.9 85.3 99.4 80.8 99.5 80.6 105.1 81.2 110.8 80.6 110.9 80.8 114.4 85.3 114.4 85.3 119.2 83.1 117.1 80.7 119.3 77.7 116.6 76.1 114.3 76.5 112.7 78.7 111.9 78.1 113 76.7 97.3 76.7 98.4 78.1 97.6 78.7 95.9 76.5 93.7 76.1 90.9 77.7 93.1 80.7"/>
          <polyline class="cls-1" points="100.5 98 102.7 96.9 102.2 96 100 97.1 99.9 97.2 100.4 98"/>
          <polyline class="cls-1" points="109.4 99.1 107.2 97.8 106.7 98.7 107.7 99.2 105.6 99.2 105.6 96.2 108.5 95.1 110.7 96.1 111 96.3 111.5 95.4 109.4 94.5 108.5 91.4 108.5 90.9 111.6 89.3 111.7 88.2 108.5 89.8 108.5 89.3 113.9 86.6 114.2 86.5 113.7 85.7 107.5 88.7 107.5 91.6 108.2 94 108.2 94 102.1 94 102.1 94 102.8 91.6 102.8 88.7 96.8 85.7 96.7 85.7 96.2 86.6 96.3 86.6 101.8 89.3 101.8 89.8 98.5 88.2 98.7 89.3 101.8 90.9 101.8 91.4 100.9 94.5 98.9 95.4 99.4 96.2 99.6 96.1 101.8 95.1 104.6 96.2 104.6 99.2 102.6 99.2 103.6 98.7 103.1 97.8 101 99 100.2 99.4 99.8 98.6 99.7 98.4 98.3 95.9 96.4 95.1 95.3 86.1 95.2 86.1 90.8 84.1 91.2 92.7 91.6 98.9 95.7 102.3 100.1 99.5 100.6 100.2 96.4 103 100.3 106.7 104.7 105.9 104.7 103.3 103.1 103.3 101.3 100.2 108.9 100.2 107.2 103.3 105.6 103.3 105.6 105.9 110 106.7 113.8 103 109.7 100.2 110.2 99.5 109.5 99.1"/>
          <polyline class="cls-1" points="115 86.1 115.1 86.2 114.1 95.1 112.2 95.9 110.2 99.5 114.6 102.3 118.7 98.9 119 92.7 119.4 84.1"/>
          <polyline class="cls-1" points="107.6 96.9 109.8 98 110 98.1 110.5 97.2 110.2 97.1 108 96"/>
        </g>
        <g>
          <polyline class="cls-1" points="143 83.1 147.8 85.3 147.8 85.3 151.3 80.8 151.4 80.6 157 81.2 162.6 80.6 162.8 80.8 166.3 85.3 166.3 85.3 171.1 83.1 169 80.7 171.2 77.7 168.5 76.1 166.2 76.5 164.6 78.7 163.8 78.1 164.9 76.7 149.2 76.7 150.3 78.1 149.5 78.7 147.8 76.5 145.6 76.1 142.9 77.7 145 80.7"/>
          <polyline class="cls-1" points="152.4 98 154.6 96.9 154.1 96 151.9 97.1 151.8 97.2 152.3 98"/>
          <polyline class="cls-1" points="161.3 99.1 159 97.8 158.6 98.7 159.6 99.2 157.5 99.2 157.5 96.2 160.4 95.1 162.6 96.1 162.9 96.3 163.4 95.4 161.2 94.5 160.4 91.4 160.4 90.9 163.5 89.3 163.6 88.2 160.4 89.8 160.4 89.3 165.8 86.6 166.1 86.5 165.6 85.7 159.4 88.7 159.4 91.6 160.1 94 160.1 94 154 94 154 94 154.7 91.6 154.7 88.7 148.6 85.7 148.6 85.7 148.1 86.6 148.2 86.6 153.7 89.3 153.7 89.8 150.4 88.2 150.5 89.3 153.7 90.9 153.7 91.4 152.8 94.5 150.8 95.4 151.3 96.2 151.5 96.1 153.6 95.1 156.5 96.2 156.5 99.2 154.5 99.2 155.5 98.7 155 97.8 152.9 99 152.1 99.4 151.7 98.6 151.6 98.4 150.2 95.9 148.3 95.1 147.2 86.1 147.1 86.1 142.7 84.1 143.1 92.7 143.5 98.9 147.6 102.3 152 99.5 152.5 100.2 148.3 103 152.2 106.7 156.6 105.9 156.6 103.3 155 103.3 153.2 100.2 160.8 100.2 159.1 103.3 157.5 103.3 157.5 105.9 161.9 106.7 165.7 103 161.6 100.2 162.1 99.5 161.4 99.1"/>
          <polyline class="cls-1" points="166.9 86.1 167 86.2 166 95.1 164.1 95.9 162.1 99.5 166.4 102.3 170.6 98.9 170.9 92.7 171.3 84.1"/>
          <polyline class="cls-1" points="159.5 96.9 161.7 98 161.9 98.1 162.4 97.2 162.1 97.1 159.9 96"/>
        </g>
        <path class="cls-1" d="M80.9,48.7c3.3,1.3,4.5,3.5,3.8,6.6-.2.8-.5,1.5-1.1,2.1-3.4,3.2-4.3,7.1-3.7,11.8,1.6,11.6,2,23.3,1.7,35.1-.2,7.6-.9,15.2-1.9,22.7-.1,1.1-.2,2.1-.5,3.2-.2.8.1.9.8.9,1.5.1,2.9.5,4.4,1,1,.3,1.4,1.1,1.1,1.9-.2.8-1.1,1.2-2,.9-8.9-2.8-15.9.2-21.7,6.9-1.6,1.9-2.9,4-3.9,6.4h38.5c-1.2-2.7-2.6-5.2-4.4-7.4-.8-1-1.8-1.9-2.8-2.7-.9-.8-1.1-1.6-.4-2.3.6-.7,1.4-.7,2.3,0,3.3,2.6,5.4,6,7.3,9.6.6,1.1,1.1,2.2,1.6,3.3.6,1.3.4,1.9-.8,2.6H24c-1.2-.8-1.4-1.4-.7-2.7,1.2-2.4,2.5-4.9,3.7-7.3.3-.6.4-.9-.5-.9-2.6.2-4.9,1-6.8,2.8-1,.9-2.1,1.4-3.3,1.7-2.7.6-5.2-1.1-5.8-3.8-.4-2,.2-3.6,1.6-5,2.6-2.6,3.8-5.8,3.2-9.5-.2-1.2-.3-2.3-.4-3.5-.8-7.3-1.3-14.6-1.5-21.9-.2-10.1.2-20.2,1.4-30.3.2-1.8.6-3.7.6-5.6,0-3-1.3-5.6-3.4-7.8-1.9-1.9-1.9-5.2-.2-7.2.7-.9,1.8-1.2,2.8-1.7h1.8c1.4.4,2.5,1.2,3.5,2.2,3,2.6,6.4,2.8,10.2,2.2,7-1.2,14.1-1.5,21.2-1.3,0,0,.2,0,.3,0,1,.1,1.5.7,1.5,1.5,0,.9-.7,1.5-1.7,1.5-3.2,0-6.5,0-9.7.1-4.2.2-8.4.7-12.5,1.3-4.5.7-8.5-.5-11.9-3.6-1.5-1.4-3.3-1.1-3.8.7-.3,1,.2,1.7.9,2.4,2.1,2.1,3.4,4.6,3.9,7.5.4,2.1,0,4.2-.2,6.3-1.3,10.5-1.9,21-1.6,31.6.2,7.3.7,14.5,1.5,21.8.1,1.2.3,2.4.4,3.6.5,4.5-.9,8.4-4,11.7-.4.4-.7.8-.9,1.3-.2.9,0,1.6.6,2.2.7.6,1.4.7,2.2.3.3-.2.6-.4.9-.6,3-2.8,6.6-4.1,10.8-3.8.7,0,.9-.2,1.2-.8,1.7-3.6,3.8-7,6.6-9.8,4.9-5,11-7,17.9-6.5,7.7.6,13.9,4.1,18.4,10.4.3.4.6.6,1.1.5.6-.1,1.2-.3,1.8-.2,1,0,1.2-.4,1.4-1.3,1.8-12.5,2.7-25,2.4-37.6-.2-8.1-.8-16.2-1.9-24.2-.6-4.7,1-8.7,4.2-12,.6-.7,1.2-1.3,1-2.3-.2-.8-.6-1.4-1.4-1.7-.9-.3-1.7,0-2.4.7-2.1,2-4.5,3.2-7.3,3.7-1.4.2-2.8.3-4.2,0-2.8-.4-5.7-.8-8.5-1.1-1.2-.1-1.8-.8-1.6-1.7.1-.9.8-1.3,2-1.2,2.7.2,5.3.6,8,1,3.3.5,6.4-.3,9-2.5,1-.8,2.1-1.7,3.3-2.1h2ZM26.9,148.3h1c8.5,0,17,0,25.5,0,.8,0,1.2-.3,1.5-1,2-4.2,4.4-8.2,8-11.3,1.9-1.7,4.1-2.9,6.5-3.8,0-.1,0-.2,0-.2-.1-.2-.2-.3-.3-.5-4.1-5.3-9.6-8-16.2-8.1-8.5,0-15.1,3.6-19.1,11.3-2.2,4.2-4.3,8.5-6.5,12.8-.1.2-.3.4-.2.8h0Z"/>
        <path class="cls-1" d="M78.6,141.6c0,.8-.7,1.4-1.5,1.4s-1.5-.7-1.5-1.5c0-.8.7-1.4,1.5-1.4s1.5.7,1.5,1.5Z"/>
        <path class="cls-1" d="M87.9,143.6c0,.8-.7,1.5-1.6,1.5-.8,0-1.4-.7-1.4-1.5,0-.9.7-1.5,1.5-1.5.8,0,1.4.7,1.4,1.5Z"/>
        <path class="cls-1" d="M67.8,145.1c-.8,0-1.5-.7-1.4-1.6,0-.8.7-1.4,1.5-1.4.8,0,1.4.6,1.5,1.4,0,.8-.7,1.5-1.5,1.5Z"/>
        <path class="cls-1" d="M47.5,131.1c0,.8-.7,1.6-1.5,1.6s-1.5-.6-1.5-1.4c0-.8.6-1.5,1.4-1.5.9,0,1.6.6,1.6,1.4h0Z"/>
        <path class="cls-1" d="M59.9,131.1c0,.9-.6,1.6-1.5,1.6s-1.5-.6-1.5-1.4c0-.8.6-1.5,1.4-1.5.9,0,1.5.6,1.6,1.4h0Z"/>
        <path class="cls-1" d="M41.3,137.3c0,.8-.7,1.5-1.5,1.5-.8,0-1.4-.7-1.4-1.5,0-.9.7-1.5,1.5-1.5.8,0,1.5.7,1.5,1.5h0Z"/>
        <path class="cls-1" d="M52.3,135.9c.8,0,1.5.6,1.5,1.4,0,.8-.7,1.5-1.5,1.5-.8,0-1.5-.7-1.5-1.6,0-.8.7-1.4,1.5-1.4h0Z"/>
      </g>
    </g>
  </g>
</svg>