<?xml version="1.0" encoding="UTF-8"?>
<svg xmlns="http://www.w3.org/2000/svg" version="1.1" viewBox="0 0 200 200">
  <defs>
    <style>
      .cls-1 {
        fill: #fff;
      }

      .cls-2 {
        fill: none;
      }
    </style>
  </defs>
  <!-- Generator: Adobe Illustrator 28.7.2, SVG Export Plug-In . SVG Version: 1.2.0 Build 154)  -->
  <g>
    <g id="Layer_1">
      <rect class="cls-2" width="200" height="200"/>
      <g>
        <path class="cls-1" d="M115.2,89c-2.8-1.7-5-3.6-8.3-.9-1.8,1.4-3.6-1.3-5.9-2.1,1.2-.9,2.2-1.7,3.4-2.6-2.7-1.4-4.7-3.3-7.7-1-2,1.5-3.6-1.1-5.8-1.9,1.2-.8,2.2-1.5,3.3-2.3-2.5-1.6-4.4-3.2-7.4-1.1-2.1,1.5-3.4-1.3-5.4-1.5.6-1.5,2.3-1.3,2.8-2.6-2.2-1.6-4.2-2.8-6.9-.8-1.9,1.3-3.1-1.2-4.8-1.4.1-1.3,1.1-1.3,1.7-1.7,8.1-4.2,16.2-8.3,24.2-12.6,2.2-1.2,4.2-1.3,6.6-.3,5,2.1,10,4,15.1,5.9,1.1.4,2.3.8,2.7,2.1.7,2,2,3.2,4.2,3.2,1,0,1.2.6,1.5,1.5.7,2.4,1.7,4.7,2.7,7,0-3.3-2-6.1-2.5-9.3,0-.1-.3-.2-.5-.2-3.7.3-4.7-2.4-5.7-5-.2-.4-.3-.9-.6-1-3.9-1.3-6.6-4.9-10.7-5.7-.8-.2-1.6-.3-2.2-.8-1.8-1.5-4.1-1.4-6-2.1-3.1-1.1-6.5-1.1-9.4-2.3-3.1-1.3-4.3-5.5-2.8-8.5,1.7-3.2,5-5.1,9-4.7,6,.7,11.7,2.5,17.1,5.3,5.3,2.7,10.1,6.5,16.1,7.9,2.1.5,2.9,2.6,3.3,4.7.9,5.7,1.8,11.5,2.8,17.7.3-2.6,1.5-1.5,2.5-1.1,7.1,2.8,14.1,5.7,21.1,8.5,7.4,3,14.8,6,22.2,9.1.7.3,2.6.1,1.7,1.6-.6,1-1.3,3-3.4,2-.7-.3-1.6-.5-2.2-.9-1.9-1.2-3.1-.4-4.3,1-.9,1.1-.6,1.5.4,1.9.6.2,1.2.4,1.6.7.7.5,2.8.3,1.7,1.9-.7,1.1-1.5,3.2-3.7,2-.4-.2-.8-.3-1.1-.5-2.8-2-4.7-1-6.3,1.9,1.7.9,3.5,1.8,5.2,2.7-2.7,3.8-2.8,4.1-6.2,2-3.3-2-4.3.4-6.1,2.3,1.1.6,2.2.9,3,1.6.7.7,3.1.4,2.1,2-.9,1.3-1.7,4.1-4.5,2.3-.7-.4-1.5-.7-2.1-1.1-1.5-1-2.6-1-3.8.5-.6.7-1.2,2-2.3,1.4-1.9-.9-3.8-1.8-5.5-3.1-.6-.4.5-1.2.9-1.6,2-1.5,1.2-2.2-.6-3.2-2.4-1.3-4.5-2.5-6.7.5-1.1,1.5-2.2,0-3.1-.5-3.9-1.9-3.8-2-.9-5.1-1.3-1.3-3.1-1.8-4.6-2.7-.9-.5-1.6-.4-2.1.3-1.9,2.5-3.8,1.8-5.9.3-.7-.5-1.5-.9-2.3-1.4,3.1-3.2,2.9-3.8-1.5-5.4-.6-.2-1.2-.4-1.6,0-3.1,3.5-5.6.7-8.4-.8,1.1-.9,2-1.6,3.2-2.6h0ZM94.8,65.5c-.2,1.9,1,2.3,2.1,2.8,20.8,9.3,41.6,18.5,62.7,27.2,3.2,1.3,5,0,4.9-4.1-1.2,3.8-3.2,3.6-6,2.4-18.4-7.8-36.7-15.8-55-23.9-2.9-1.3-6-2.2-8.8-4.4h0Z"/>
        <path class="cls-1" d="M134.2,108.3c.1.7,0,1.4.3,1.6,2.6,1.9.7,3-.6,4.3-11.1,10.7-17.8,23.7-19.6,39-.3,2.8-1.5,2.5-3.3,1.7-2.6-1.1-3.8-3.2-3.2-5.9,3.6-16.8,12.9-29.8,26.4-40.7h0Z"/>
        <path class="cls-1" d="M122.8,101.8c.1.3.2.4.2.5,2.2,3.4-.8,4.5-2.7,6-12.2,9.8-21.9,21.5-27.4,36.3-.6,1.5-1,3-3.1,1.8-1.8-1-3.5-2.1-2.5-4.6,1.7-4.1,3.9-7.9,6.3-11.6,7.5-11.5,17.7-20.4,29.1-28.4Z"/>
        <path class="cls-1" d="M80.1,82.3c-.5.9-1.4,1.1-2.1,1.5-11.3,6.1-22.3,12.5-32.7,20-6.2,4.6-12.2,9.5-17.6,15-1.2,1.2-2.5,2.1-3.8.6-1.2-1.3-.5-2.7.8-3.9,14-13.2,30.1-23.4,47-32.5,1.7-.9,3.5-1.9,5.2-2.8.6-.3,1.3-1.1,1.7-.5.5.8.7,1.8,1.5,2.5h0Z"/>
        <path class="cls-1" d="M72.2,75.7c2.2,4-1.2,4.4-3.2,5.5-16.7,8.7-33.1,17.9-47.5,30.2-1.4,1.2-2.8,2.3-4,3.6-1.1,1.1-2.4,1.5-3.4.3-1.2-1.3-.6-2.6.7-3.6,2.6-2.1,5.2-4.4,7.9-6.4,15.3-11.8,32.2-21,49.6-29.6h0Z"/>
        <path class="cls-1" d="M47.3,130c-.9-.2-1.7-.5-2.2-1.5-.5-1.2-.3-2.1.6-3.1,5.5-6.4,11.5-12.2,18-17.5,8.9-7.2,18.5-13.3,28.4-18.9.4-.3,1.4-1.7,1.8-.2.2,1,2.4,1.9-.1,3.4-13.2,7.6-25.6,16.2-36.3,27.2-2.9,3-5.5,6.2-8.3,9.3-.5.6-.9,1.5-2,1.4h0Z"/>
        <path class="cls-1" d="M112.3,97.1c.6.2.3.6.4.7,2,3-.8,3.7-2.4,4.8-13.8,9.7-25.8,21.1-33.9,36.1-.9,1.7-1.9,2.6-3.7,1.4-1.4-1.1-2.3-2.4-1.1-4.3,4.5-7.2,9.8-13.8,15.9-19.7,7.6-7.3,15.9-13.4,24.7-18.9Z"/>
        <path class="cls-1" d="M146.2,114.2c.6,0,.4.4.6.5,2.7,1.8.6,3.3-.4,4.8-8.4,12.8-14.7,26.3-16.5,41.7-.2,1.8-.8,2.8-2.6,2.4-1.6-.4-2.7-1.3-2.3-3.3,1.4-7.6,3.6-14.9,6.8-21.9,3.9-8.6,9-16.6,14.5-24.2h0Z"/>
        <path class="cls-1" d="M36.2,124.7c-.7-.3-1.7-.3-2.1-1.3-.4-1-.6-2,.3-2.9,1.9-1.8,3.7-3.7,5.6-5.6,13.3-12.5,28.8-22.1,44.8-30.7.4-.2,1.3-1.6,1.7.2.3,1.1,1.7,1.9-.4,3.1-12.6,6.8-24.7,14.5-35.6,23.8-4.4,3.7-8.5,7.7-12.4,11.9-.5.6-1,1.4-2,1.5h0Z"/>
        <path class="cls-1" d="M102.9,92.7c2.5,3,0,3.9-1.9,5.2-15.1,9.7-28.8,20.9-38.9,35.9-1,1.6-2.2,1.8-3.5.8-1.2-.9-1.8-2.2-.7-3.7,2.1-2.7,4.3-5.5,6.6-8.1,11-12.4,24.3-21.7,38.4-30.1h0Z"/>
      </g>
    </g>
  </g>
</svg>