<svg id="Layer_2" data-name="Layer 2" xmlns="http://www.w3.org/2000/svg" viewBox="0 0 100 100"><g id="Layer_1-2" data-name="Layer 1-2"><path d="M95,53c-.88,1.76-1.49,2-3.44,1.52a23.26,23.26,0,0,0-6.19-1.15,4.33,4.33,0,0,0-2.08.48,1.43,1.43,0,0,0-.24,2.56c.34.28.76.46,1.09.75.8.72,1.14,1.6.28,2.44A1.55,1.55,0,0,1,82,59.27a7.36,7.36,0,0,1-.81-1.61c-.5-1-1.07-1-1.66-.1A2.92,2.92,0,0,0,79.16,61c.29.46.53,1.16-.16,1.43s-1.13-.38-1.26-1a21.61,21.61,0,0,1-.24-2.58,4.62,4.62,0,0,1-3.57,1c-1-.21-1.38.85-1.47,1.68-.13,1.19-.62,1.68-1.84,1.49-1.38-.22-1.89.61-2,1.85A37.16,37.16,0,0,0,68.88,72a7.66,7.66,0,0,1-.08,3.3c-.21.69-.6,1.27-1.36,1.25s-.89-.75-1-1.33a9.52,9.52,0,0,1,.07-3.15,39.45,39.45,0,0,0,.22-6.15c0-1-.33-1.54-1.41-.86a1.53,1.53,0,0,1-.93.31c-1.88-.33-3.47-.25-4.74,1.58-.57.82-1.45-.17-2.2-.74-.12,1.74.67,3.18.66,4.72,0,.77,0,1.55,0,2.32a1.61,1.61,0,0,1-1.5,1.7,1.78,1.78,0,0,1-1.88-1.35,8.9,8.9,0,0,1-.15-4.44c.24-1.51.73-3,.35-4.72-1.16.49-1.23,1.56-1.45,2.45A18.38,18.38,0,0,0,53,72c.2,5.16-.12,10.33.31,15.48.1,1.23-.07,2.41-1.66,2.55-1.23.11-2.17-.87-2-2.47.25-2.92.76-5.82,1.09-8.73a48,48,0,0,0,0-9.81c-.08-.85,0-1.91-1.34-.79-.94.78-1.62.29-2.08-.69-.16-.34-.25-.83-.74-.77s-.55.52-.69.87a6.5,6.5,0,0,0-.05,4.09,9.86,9.86,0,0,1,.26,2.81c0,.87-.22,1.73-1.25,1.89A1.85,1.85,0,0,1,42.68,75a5.42,5.42,0,0,1-.19-2.47c.15-1,.33-2,.4-3,.06-.8.45-1.87-.4-2.31s-1.94.07-2.84.51-.82,1.22-.69,2a4.57,4.57,0,0,1,.07.83c0,1.17-.17,2.33-1.68,2.39s-1.89-1-1.92-2.22c0-1.78-1.23-3.19-1.48-4.9-.09-.61-.58-.27-.93-.21-2.2.36-2.66,0-2.67-2.31,0-.39,0-.78,0-1.17,0-2-.14-2-2-1.31-.42.17-.89.41-1.26.1s-.22-.95,0-1.39c.51-1.17,1.09-2.3,1.61-3.46.24-.53.36-1.18-.19-1.51s-.61.44-.89.7a2.2,2.2,0,0,1-1.3.68c-.52,0-1,0-1.21-.61a.91.91,0,0,1,.57-1.08c.29-.15.61-.26.9-.43a.51.51,0,0,0,.2-.72c-.21-.37-.52-.37-.83-.12s-.56.54-.86.78a3.32,3.32,0,0,1-4.16.35,2.81,2.81,0,0,0-3.5,0,9.66,9.66,0,0,1-4,1.63c-1,.12-1.82,0-2.08-1.14s.54-1.42,1.36-1.76c1.24-.52,2.67-.1,4-.88-2-1.65-4,.09-5.93-.13S7,52.6,5,52.64V51c3.43,0,6.56-1.63,10-1.88.67-.05.61-.34.39-.87-.33-.83.16-1.36.89-1.7a2.77,2.77,0,0,1,3.25.43c1,.91,2.13.88,2.7-.18,1.42-2.63,3.38-2.9,5.86-1.83a2,2,0,0,0,.49.08c1.82.18,2.29-.33,2.11-2.13-.11-1.07-.54-2.33.54-3.1.9-.64.61-1.17.18-1.78-.66-1-1.65-1.87-1.69-3-.05-1.5-.86-2-2-2.44-.73-.28-1.72-.79-1.41-1.59.57-1.48-.4-2.11-1.11-3s-1.48-1.73-1-3a.88.88,0,0,1,.95-.55c1.36.13,1.68,1.25,2.14,2.26.93,2,1.69,4.17,3.44,5.63a7.74,7.74,0,0,1,2.49,3c.47,1.14,1.59,1.11,2.56.55s.83-1.29.25-2.12a12.3,12.3,0,0,1-1.91-3.29c-.37-1.15-.72-2.39.62-3.09s2,.2,2.57,1.28c-1.29-4-.87-8.2-2.46-12-.14-.34-.27-.94-.09-1.13,1.25-1.34.37-3.09,1-4.53h.67a5,5,0,0,1,1.3,4.31c-.29,4.11.59,8.05,1.54,12,.06.26.23.73.29.72,1.4-.22,1.27,1,1.54,1.71a1.1,1.1,0,0,0,1.34.87,5,5,0,0,1,3.59,1,2.92,2.92,0,0,0,3.56,0,6.92,6.92,0,0,0,2.89-7.72c-.55-1.87-.69-3.71.7-5.35a2.11,2.11,0,0,1,2.21-.83,2,2,0,0,1,1.42,1.86,5.69,5.69,0,0,1-.31,2.94,23.69,23.69,0,0,0-1,3.17c-.4,1.94.16,2.72,2.08,3.24a8.17,8.17,0,0,1,2.8,1,7.47,7.47,0,0,0,6.34,1.51c3.28-.6,6.91.5,9.67-2.42.21.76-.2,1.22-.37,1.72-.7,2.19-.46,2.22,1.28,3.59s3,1.76,4.59,0a1.23,1.23,0,0,1,1.93,0,1.69,1.69,0,0,1-.07,2.16,2.68,2.68,0,0,1-1.88.94,13.37,13.37,0,0,0-2.11.43c-2.33.8-3,2.58-1.44,4.53a7.92,7.92,0,0,1,2.07,5.42c-.07,1.53.76,1.89,2.21,1.25A5.47,5.47,0,0,1,85,48.24c.45,0,.92,0,1.12.53s-.09.84-.42,1.16-.64.24-.62.75a29.61,29.61,0,0,0,4.61-.23c2-.09,4-.3,5.26,1.86V53Z" style="fill:#E66C00"/><path d="M62.13,75.44A18.89,18.89,0,0,1,63,81.05c0,.59.08,1.38-.69,1.5s-1.12-.64-1.21-1.3A11.85,11.85,0,0,1,62.13,75.44Z" style="fill:#E66C00"/><path d="M81.31,65.94a10.11,10.11,0,0,1,3.07,2.9c.44.68.73,1.5-.12,2s-1.49,0-1.85-.79A8.84,8.84,0,0,1,81.3,66Z" style="fill:#E66C00"/><path d="M25,62.64c-.2,1-.36,1.85-.55,2.69-.07.31-.18.69-.61.63a.75.75,0,0,1-.6-.69c-.22-1.31.53-2,1.75-2.63Z" style="fill:#E66C00"/><path d="M75,64.93c0,.59-.31,1.18-.83,1-1-.25-.71-1.3-1-2-.1-.31.08-.74.48-.66.87.17,1.14.9,1.3,1.63Z" style="fill:#E66C00"/><path d="M33.38,80.22c-.17.62-.39,1.23-1.13,1.26a.71.71,0,0,1-.8-.84c.1-.66.34-1.43,1.08-1.5C33,79.09,33.3,79.69,33.38,80.22Z" style="fill:#E66C00"/><path d="M66.8,25.23c.23-1.54.44-3.06.71-4.57.07-.39.08-1,.68-1s.53.63.6,1.06A4,4,0,0,1,66.8,25.23Z" style="fill:#E66C00"/><path d="M26.85,39.68l-3.38-.6c-.56-.09-1.14-.17-1.19-.89a1.43,1.43,0,0,1,1.1-1.46C24.91,36.14,26.32,37.3,26.85,39.68Z" style="fill:#E66C00"/><path d="M18.85,33.92c-1,.17-1.77.21-2.25-.67a.57.57,0,0,1,.39-.8c1-.18,1.39.61,1.87,1.46Z" style="fill:#E66C00"/></g></svg>