<svg id="Layer_2" data-name="Layer 2" xmlns="http://www.w3.org/2000/svg" viewBox="0 0 59.77 76.25"><g id="Layer_1-2" data-name="Layer 1-2"><path d="M47.48,63.75a2,2,0,0,0-2.53.59c-3.39,3.48-6.85,6.9-10.29,10.32-2.12,2.11-4.12,2.11-6.24,0C25,71.27,21.58,67.91,18.25,64.44a2.31,2.31,0,0,0-3-.6A49.08,49.08,0,0,0,3.7,70.2l-.91.7c-.77.6-1.63,1.51-2.49.35s.29-1.73,1-2.33a45.62,45.62,0,0,1,12.31-7c1.15-.43,1.33-.74.37-1.65-2.6-2.5-5.12-5.07-7.66-7.63-1.85-1.87-2-4.19-.33-5.78s3.83-1.39,5.66.43c3.64,3.62,7.28,7.24,10.88,10.9a2.44,2.44,0,0,0,2.31.8,46,46,0,0,1,12.73-.05,3,3,0,0,0,3.28-1.16,2.83,2.83,0,0,1,.71-.67,1.16,1.16,0,0,1,1.63.1,1.08,1.08,0,0,1,0,1.62q-5.42,5.48-10.88,10.89a1.17,1.17,0,0,1-1.76,0c-.32-.29-.63-.61-.94-.92L10.58,49.63c-.31-.31-.61-.62-.93-.92a1.26,1.26,0,0,0-1.89-.09,1.22,1.22,0,0,0,0,1.88c.22.24.45.47.69.7Q19.17,61.91,29.89,72.63c1.5,1.5,1.8,1.49,3.32,0l17-17c.56-.55,1-1.39,2-1s.88,1.28.85,2.08.16,1.74,1.22,1.78,1.42-.78,1.41-1.77c0-2.24,0-4.48,0-6.72a1.52,1.52,0,0,0-1.7-1.73H47.18c-.92,0-1.66.34-1.62,1.41s.75,1.2,1.61,1.22a5.7,5.7,0,0,1,1.6.19.92.92,0,0,1,.7,1.14A5.6,5.6,0,0,1,46.73,55c-.45.24-1.26,0-1.24-.43.08-1.63-1.4-2.18-2-3.29a3.67,3.67,0,0,1,2.91-5.47c2.78-.15,5.57-.1,8.35,0a3.48,3.48,0,0,1,3.4,3.52c.08,2.67.06,5.35,0,8a3.45,3.45,0,0,1-2.47,3.33,3.29,3.29,0,0,1-4-1c-.81-1.09-1.29-1-2-.06a3.76,3.76,0,0,1-.69.69c-1,.77-.75,1.14.34,1.56" style="fill:#E66C00"/><path d="M47.39,17.69a6.89,6.89,0,0,1-6.58-8.94A19.17,19.17,0,0,1,46.11.63a1.73,1.73,0,0,1,2.72.06A19.6,19.6,0,0,1,54,8.53,6.9,6.9,0,0,1,47.39,17.69Z" style="fill:#E66C00"/><path d="M59.09,68.64a1.63,1.63,0,0,1-1.54-.16,46,46,0,0,0-10.09-4.61c-.84-.27-1.4-.78-1.12-1.72a1.31,1.31,0,0,1,1.86-.86,43.21,43.21,0,0,1,10.73,4.9c1.08.69,1.11,2,.15,2.45Z" style="fill:#E66C00"/><path d="M46.28,29.54C45,24.07,41.91,19.48,38.55,15.07A34,34,0,0,0,33.37,9.4c-1.53-1.27-2.17-1.27-3.71,0a15.19,15.19,0,0,0-2.21,2.18c-.88,1.14-1.35,1.36-2.12-.17a29.33,29.33,0,0,0-5.88-7.81c-1.52-1.47-2.29-1.49-3.75,0-1.08,1.07-2,2.26-3,3.42-.55.64-.82,1.4-.05,2s1.41.23,2-.44c.76-.93,1.55-1.83,2.34-2.73.34-.39.67-.7,1.18-.14,3.06,3.38,5.85,6.94,6.93,11.49a7.41,7.41,0,0,1-3.4,7.89A7.72,7.72,0,0,1,13,24.75a7.47,7.47,0,0,1-2.84-8,25.44,25.44,0,0,1,1.12-3.06A1.2,1.2,0,0,0,10.68,12c-.75-.35-1.23.08-1.61.69A10.33,10.33,0,0,0,15.7,28.51c1,.22,1.17.57,1,1.53a15.15,15.15,0,1,0,29.59-.5ZM30.94,43.15a10.31,10.31,0,0,1-9.53-9.39c-.05-.94,0-1.88,1.2-1.93s1.21.87,1.32,1.72c.54,4.22,2.91,6.54,7.25,7.09.84.11,1.52.36,1.56,1.32,0,.79-.7,1.25-1.8,1.2Z" style="fill:#E66C00"/></g></svg>